# xmcd
#
# Track frame offsets: 
#        150
#        15373
#        36172
#        58887
#        72838
#        93907
#        113593
#        130614
#        147419
#
# Disc length: 2244 seconds
#
# Revision: 0
# Processed by: cddbd v1.5.2PL0 Copyright (c) Steve Scherf et al.
# Submitted via: ExactAudioCopy v1.3
#
DISCID=7208c209
DTITLE=Fekete Jenő - Horváth Misi Blues Duo - Fekete Jenő and Horváth Mi
DTITLE=si
DYEAR=2018
DGENRE=Blues
TTITLE0=Coming In on a Wing and a Prayer
TTITLE1=Baby Won't You Please Come Home
TTITLE2=Mistery Train
TTITLE3=The Stuff You Gotta Watch
TTITLE4=Georgia on My Mind
TTITLE5=A Pallet on Your Floor
TTITLE6=San Francisco Bay
TTITLE7=Sliding Delta
TTITLE8=While My Guitar Gently Weeps
EXTD=
EXTT0=
EXTT1=
EXTT2=
EXTT3=
EXTT4=
EXTT5=
EXTT6=
EXTT7=
EXTT8=
PLAYORDER=
